<?xml version="1.0" encoding="UTF-8" standalone="no"?>
<!-- Created with Inkscape (http://www.inkscape.org/) -->

<svg
   xmlns:dc="http://purl.org/dc/elements/1.1/"
   xmlns:cc="http://creativecommons.org/ns#"
   xmlns:rdf="http://www.w3.org/1999/02/22-rdf-syntax-ns#"
   xmlns:svg="http://www.w3.org/2000/svg"
   xmlns="http://www.w3.org/2000/svg"
   xmlns:sodipodi="http://sodipodi.sourceforge.net/DTD/sodipodi-0.dtd"
   xmlns:inkscape="http://www.inkscape.org/namespaces/inkscape"
   width="1000"
   height="508.28961"
   id="svg17792"
   version="1.1"
   inkscape:version="0.48.5 r10040"
   sodipodi:docname="New document 4">
  <defs
     id="defs17794" />
  <sodipodi:namedview
     id="base"
     pagecolor="#ffffff"
     bordercolor="#666666"
     borderopacity="1.0"
     inkscape:pageopacity="0.0"
     inkscape:pageshadow="2"
     inkscape:zoom="0.39491638"
     inkscape:cx="781.96802"
     inkscape:cy="-293.68548"
     inkscape:document-units="px"
     inkscape:current-layer="layer1"
     showgrid="false"
     fit-margin-left="0.5"
     fit-margin-bottom="0.5"
     fit-margin-top="0.5"
     fit-margin-right="0.5"
     inkscape:window-width="1046"
     inkscape:window-height="1014"
     inkscape:window-x="864"
     inkscape:window-y="3"
     inkscape:window-maximized="0" />
  <metadata
     id="metadata17797">
    <rdf:RDF>
      <cc:Work
         rdf:about="">
        <dc:format>image/svg+xml</dc:format>
        <dc:type
           rdf:resource="http://purl.org/dc/dcmitype/StillImage" />
        <dc:title></dc:title>
      </cc:Work>
    </rdf:RDF>
  </metadata>
  <g
     inkscape:label="Layer 1"
     inkscape:groupmode="layer"
     id="layer1"
     transform="translate(-140.00195,107.20129)">
    <g
       id="g15805"
       transform="matrix(5.539352,0,0,-5.539352,533.01763,87.020067)">
      <path
         d="m 0,0 c -2.132,5.699 5.196,15.419 19.75,23.058 1.604,0.846 3.204,1.613 4.791,2.326 0.601,4.637 -0.557,8.18 -3.522,9.258 C 15.909,36.503 7.353,30.301 1.927,20.783 -0.18,17.068 -1.513,13.401 -2.041,10.194 -2.74,6.006 -1.595,1.585 0.917,-1.634 0.505,-1.052 0.182,-0.485 0,0"
         style="fill:#007ac2;fill-opacity:1;fill-rule:nonzero;stroke:none"
         id="path15807"
         inkscape:connector-curvature="0" />
    </g>
    <g
       id="g15809"
       transform="matrix(5.539352,0,0,-5.539352,933.79586,85.52165)">
      <path
         d="m 0,0 c 0.126,-6.41 -15.734,-11.733 -35.415,-11.889 -19.682,-0.154 -35.74,4.924 -35.866,11.344 -0.13,6.401 15.739,11.724 35.41,11.873 C -16.182,11.485 -0.12,6.41 0,0"
         style="fill:#ffda00;fill-opacity:1;fill-rule:nonzero;stroke:none"
         id="path15811"
         inkscape:connector-curvature="0" />
    </g>
    <g
       id="g15813"
       transform="matrix(5.539352,0,0,-5.539352,825.17582,-68.95036)">
      <path
         d="m 0,0 c -3.677,4.829 -18.453,2.549 -32.992,-5.096 -14.554,-7.641 -21.881,-17.362 -19.749,-23.06 0.438,-1.198 1.681,-2.797 3.113,-4.078 -1.293,1.189 -2.014,2.459 -2.043,3.803 -0.132,6.4 15.738,11.729 35.409,11.874 2.072,0.019 4.106,-0.03 6.089,-0.127 C -1.587,-10.334 2.781,-3.656 0,0"
         style="fill:#6caf2b;fill-opacity:1;fill-rule:nonzero;stroke:none"
         id="path15815"
         inkscape:connector-curvature="0" />
    </g>
    <g
       id="g15817"
       transform="matrix(5.539352,0,0,-5.539352,1127.5868,236.22468)">
      <path
         d="m 0,0 c -0.537,-2.577 -1.725,-3.007 -4.288,-3.007 l -5.159,0 0,-9.015 c 0.003,-6.879 1.722,-9.45 8.59,-9.446 0.43,0 1.715,0 3.008,0.428 l -1.719,-7.733 c -0.852,-0.423 -2.578,-0.855 -4.717,-0.855 -9.02,0 -15.033,4.727 -15.033,15.026 l -0.008,33.062 9.871,1.716 0.005,-14.16 10.738,0 L 0,0 z m -21.474,6.012 -1.283,-6.016 c -0.429,-2.366 -1.514,-3.008 -4.293,-3.004 l -0.863,-0.004 c -4.299,0 -6.872,-3.012 -6.872,-9.013 l 0.005,-16.755 -9.867,-0.006 -0.015,34.349 9.873,1.73 0.004,-7.735 c 1.284,4.298 4.293,6.452 9.016,6.452 l 4.295,0.002 z M -73.855,-10.97 c 7.298,1.075 12.983,4.41 14.598,9.239 -1.72,0.862 -3.437,1.281 -5.577,1.285 -5.161,-0.004 -9.024,-3.432 -9.021,-9.449 l 0,-1.075 z m 22.325,-7.939 -2.141,-8.588 c -2.576,-1.289 -6.868,-2.145 -10.307,-2.15 -13.742,-0.002 -20.179,7.725 -20.179,18.468 -0.004,11.583 8.149,18.466 19.742,18.466 4.73,0.002 10.733,-1.283 15.037,-3.864 -0.856,-12.987 -10.627,-18.574 -22.974,-20.51 1.714,-3.003 4.834,-4.395 9.236,-4.395 3.437,0 8.159,0.859 11.586,2.573 m -60.97,16.407 0.006,-17.923 c 1.496,-0.752 3.109,-1.071 5.143,-1.071 5.584,0 9.455,3.436 9.45,10.739 0,6.011 -2.576,9.874 -8.596,9.874 -2.57,0 -4.506,-0.647 -6.003,-1.619 m -9.873,-24.153 -0.014,46.803 9.882,-1.709 0.002,-13.312 c 2.038,1.178 4.717,2.148 8.153,2.148 10.739,0.008 16.747,-6.444 16.752,-17.173 0.003,-12.028 -7.29,-19.753 -20.18,-19.76 -4.289,-10e-4 -10.733,1.289 -14.595,3.003 m -17.175,-2.149 -0.01,48.946 9.874,-1.708 0.018,-47.238 -9.882,0 z m -17.183,16.744 -6.866,-1.724 c -2.681,-0.644 -5.152,-1.506 -5.152,-4.514 0.006,-2.571 2.144,-4.061 6.011,-4.061 2.147,0 4.504,0.415 6.007,1.071 l 0,9.228 z m -6.001,-17.612 c -10.306,-0.002 -15.464,3.866 -15.463,11.169 -0.005,5.683 4.286,8.695 10.305,9.873 l 6.434,1.287 c 2.26,0.541 4.722,0.864 4.722,3.441 0,2.141 -1.715,3.438 -6.009,3.43 -3.43,0 -8.585,-1.289 -13.739,-3.438 l 1.716,8.588 c 4.298,1.718 9.447,2.583 13.739,2.583 9.45,0.005 14.175,-3.433 14.175,-10.303 l 0.008,-23.62 c -3.866,-1.715 -11.166,-3.005 -15.888,-3.01"
         style="fill:#007ac2;fill-opacity:1;fill-rule:nonzero;stroke:none"
         id="path15819"
         inkscape:connector-curvature="0" />
    </g>
  </g>
</svg>
