<svg height="226.871303" viewBox="0 0 18.047746 9.2711321" width="440.778532" xmlns="http://www.w3.org/2000/svg"><g transform="translate(-65.05944 -175.191728)"><path d="m66.714348 184.33057c-1.014942 0-1.526469-.37994-1.522589-1.10172-.0039-.56057.419806-.8569 1.014236-.97155l.633589-.12771c.223661-.0533.466725-.0861.466725-.34043 0-.20885-.167922-.33937-.591961-.33796-.340078 0-.848431.12911-1.356078.33796l.170039-.84596c.422981-.16792.932039-.25506 1.35502-.25506.930275 0 1.395588.33831 1.395588 1.016v2.32974c-.378177.16793-1.097491.29669-1.564569.29669m.594078-1.73637-.677686.16863c-.264231.0645-.509764.14957-.509764.44591 0 .25541.211666.40146.593372.40146.211667 0 .445558-.042.594078-.10654zm1.691569 1.65276v-4.82847l.971197.16651.0039 4.66196zm1.694745-.21308-.0011-4.61539.974725.16651v1.31586c.200378-.11782.464256-.21201.801864-.21201 1.061156 0 1.651706.63182 1.651706 1.69156.0035 1.1864-.714023 1.94734-1.986492 1.95016-.426156 0-1.060097-.12876-1.440744-.29669m.973666-2.3823v1.766c.148167.0759.306564.1083.507647.1083.550334 0 .930981-.34043.930981-1.06045 0-.59302-.252236-.97119-.847725-.97119-.250825 0-.445206.061-.590903.15734m6.013803 1.61889-.215195.8442c-.252941.12806-.676275.21061-1.014941.21061-1.354314.002-1.988961-.75847-1.988961-1.81751 0-1.14265.801158-1.81963 1.947333-1.81963.462844-.002 1.056217.12453 1.482372.37782-.08537 1.28165-1.04775 1.83304-2.265186 2.02424.168981.29563.478014.4318.908403.4318.341136 0 .805392-.0832 1.146175-.25153m-2.203803-.78352c.72002-.10795 1.279878-.43638 1.440745-.91087-.17145-.084-.342548-.12735-.549981-.12735-.511528 0-.891117.3369-.890764.93027zm5.165725-1.67428-.127706.59126c-.04233.23353-.147813.29668-.423686.29668h-.08396c-.424744 0-.679097.2981-.679097.88971l.0021 1.65241h-.973314l-.0025-3.38843.972961-.16792.000706.76094c.127706-.42192.422628-.63465.891469-.63465zm2.115961.59126c-.05186.25611-.168628.29668-.421922.29668h-.508353v.88971c0 .68015.170039.93168.84702.93063.03951 0 .169686 0 .298097-.0416l-.170392.76094c-.08537.0452-.254353.085-.466372.085-.888647 0-1.482372-.46743-1.482372-1.47885v-3.26144l.974019-.17004v1.39771h1.058333z" fill="#0079bb"/><path d="m72.415209 179.0509c.413103.40358 1.622072.75671 3.258255.75671l.09031-.00035c1.507772-.0106 2.873022-.34044 3.319991-.80046.09631-.0995.143581-.20002.141464-.29915-.0085-.47343-1.206147-.97755-3.015192-1.04458-.02117-.00035-.04339-.001-.06526-.002-.107598-.003-.217664-.005-.330553-.005l-.09596.00071c-.06138.00035-.123472.002-.184503.004-1.430161.037-2.701572.35842-3.131255.79904-.0067.007-.01199.0145-.01834.0222-.01587.0169-.03175.0342-.0448.0515-.05397.0744-.08079.14922-.07973.22296 0 .004.0025.007.0025.012.0014.025.0056.0508.01376.0762.0032.01.0081.019.01199.0289.0088.0205.0187.0413.03175.0617.0056.01.01235.0194.01976.0286.01552.0219.03387.0434.05398.0646.0071.008.01411.0159.02187.0233" fill="#f8dc00"/><path d="m72.122577 178.5714c.0014-.003.0032-.006.0046-.009.01129-.0272.02611-.055.04233-.0818.0067-.0113.01199-.0236.01905-.0342.02575-.0363.05468-.0744.0889-.10936.0014-.001.0018-.006.0025-.007.470605-.48119 1.76918-.82303 3.265664-.8569.05644-.001.645936.0176.671336.0183.02963.00071.05786.001.08749.002.599722-.44767.987072-.9144 1.035402-1.25306.01552-.10866-.0046-.20144-.06068-.27587-.109361-.14359-.34925-.21979-.693561-.21979-.666398 0-1.601964.28187-2.501195.75389-.02505.0127-.04762.0265-.07303.0399-.06279.0335-.124178.0674-.183797.1009-.03704.0219-.07197.0437-.108303.0653-.04445.0268-.08996.0536-.132644.0808-.03704.0233-.07161.0462-.107597.0699-.03916.0261-.07726.0515-.115359.0773-.03493.024-.06738.0483-.100541.0727-.03493.0247-.07056.0501-.103012.0755-.03175.0243-.0635.049-.09384.0734-.03105.025-.06174.0497-.09172.0744-.02928.0247-.05715.0494-.08467.0737-.02822.0247-.05574.049-.0822.0741-.02611.0243-.05115.0487-.0762.073-.0254.0247-.04868.0487-.07232.073-.02258.024-.04586.048-.06738.0716-.02222.0247-.04304.0487-.06279.0727-.01976.0233-.03951.0466-.05856.0691-.0194.0247-.0374.049-.05468.073-.01587.0219-.03316.0441-.04798.0663-.01799.0247-.03316.0497-.04833.0744-.0127.0197-.02611.0395-.03704.0593-.01764.0303-.03175.0596-.04657.0893-.0067.013-.01517.0272-.02117.0402-.0194.042-.03563.0822-.04868.12277-.0046.0127-.0074.0257-.01058.0381-.0081.0272-.01552.054-.02046.0797-.0039.0141-.0042.0282-.0071.042-.0028.0233-.0067.0462-.0074.0681-.0011.0141 0 .0272 0 .0409.000353.0137.0011.0275.0021.0413" fill="#87ab31"/><path d="m72.157108 177.88536c.02364-.0392.04974-.0794.07832-.11924.0078-.0109.01552-.0219.02328-.0332.03387-.0459.06914-.0924.108656-.13935.0021-.003.0046-.006.0071-.009.04304-.0519.08961-.10371.138995-.15557.0056-.006.01164-.012.01693-.0176.04233-.0441.08678-.0878.132997-.13159.01235-.0123.02575-.0247.03881-.0367.04269-.0395.08678-.0787.132291-.11747.01376-.0116.02716-.0233.04057-.0346.119591-.0998.248003-.19862.386644-.29492.01305-.009.02646-.018.03916-.0272.05644-.0388.113947-.0769.172861-.11465.01976-.0127.03951-.0247.05962-.0374.0568-.0363.116417-.0713.176036-.10689.01799-.0102.03563-.0215.05433-.0314.07761-.0452.158044-.0896.240594-.133.000353-.00035.0011-.00071.0021-.001.14852-.078.298097-.14852.447675-.2159.0702-.20461.07161-.38876-.0011-.53411-.05821-.11959-.164042-.20531-.305506-.24835-.04798-.0148-.100189-.0222-.156633-.0222-.506942 0-1.204031.57468-1.65735 1.36702-.196145.35136-.328789.70873-.385233 1.03293-.03281.19368-.02364.3937.02258.5842.0067-.0272.01623-.055.0254-.0829.0018-.006.0032-.012.0053-.0183.01623-.0476.03563-.0967.05856-.14675.000353-.00036.000706-.001.0011-.001.02222-.0466.04833-.0942.07691-.14217.006-.0102.0127-.0208.01905-.0314" fill="#0079bb"/></g></svg>